<svg width="23" height="22" viewBox="0 0 23 22" fill="none" xmlns="http://www.w3.org/2000/svg">
<g clip-path="url(#clip0_720_807)">
<path d="M11.2491 19.8187C16.2156 19.8187 20.2415 15.7928 20.2415 10.8263C20.2415 5.85986 16.2156 1.83398 11.2491 1.83398C6.28265 1.83398 2.25677 5.85986 2.25677 10.8263C2.25677 15.7928 6.28265 19.8187 11.2491 19.8187Z" stroke="#0B0B0B" stroke-width="1.79847" stroke-linejoin="round"/>
<path d="M11.2491 8.12935C11.6068 8.12935 11.9499 7.98724 12.2029 7.73428C12.4559 7.48132 12.598 7.13823 12.598 6.78049C12.598 6.42276 12.4559 6.07967 12.2029 5.82671C11.9499 5.57375 11.6068 5.43164 11.2491 5.43164C10.8914 5.43164 10.5483 5.57375 10.2953 5.82671C10.0424 6.07967 9.90026 6.42276 9.90026 6.78049C9.90026 7.13823 10.0424 7.48132 10.2953 7.73428C10.5483 7.98724 10.8914 8.12935 11.2491 8.12935ZM11.2491 16.2225C11.6068 16.2225 11.9499 16.0804 12.2029 15.8274C12.4559 15.5744 12.598 15.2314 12.598 14.8736C12.598 14.5159 12.4559 14.1728 12.2029 13.9198C11.9499 13.6669 11.6068 13.5248 11.2491 13.5248C10.8914 13.5248 10.5483 13.6669 10.2953 13.9198C10.0424 14.1728 9.90026 14.5159 9.90026 14.8736C9.90026 15.2314 10.0424 15.5744 10.2953 15.8274C10.5483 16.0804 10.8914 16.2225 11.2491 16.2225ZM7.20255 12.1759C7.56029 12.1759 7.90338 12.0338 8.15634 11.7808C8.40929 11.5279 8.55141 11.1848 8.55141 10.8271C8.55141 10.4693 8.40929 10.1262 8.15634 9.87327C7.90338 9.62031 7.56029 9.4782 7.20255 9.4782C6.84481 9.4782 6.50173 9.62031 6.24877 9.87327C5.99581 10.1262 5.8537 10.4693 5.8537 10.8271C5.8537 11.1848 5.99581 11.5279 6.24877 11.7808C6.50173 12.0338 6.84481 12.1759 7.20255 12.1759ZM15.2957 12.1759C15.6534 12.1759 15.9965 12.0338 16.2495 11.7808C16.5024 11.5279 16.6445 11.1848 16.6445 10.8271C16.6445 10.4693 16.5024 10.1262 16.2495 9.87327C15.9965 9.62031 15.6534 9.4782 15.2957 9.4782C14.9379 9.4782 14.5948 9.62031 14.3419 9.87327C14.0889 10.1262 13.9468 10.4693 13.9468 10.8271C13.9468 11.1848 14.0889 11.5279 14.3419 11.7808C14.5948 12.0338 14.9379 12.1759 15.2957 12.1759Z" stroke="#0B0B0B" stroke-width="1.79847" stroke-linejoin="round"/>
<path d="M11.2491 19.8164H20.2415" stroke="#0B0B0B" stroke-width="1.79847" stroke-linecap="round"/>
</g>
<defs>
<clipPath id="clip0_720_807">
<rect width="21.5817" height="21.5817" fill="white" transform="translate(0.458313 0.0351562)"/>
</clipPath>
</defs>
</svg>
