<svg width="15" height="15" viewBox="0 0 15 15" fill="none" xmlns="http://www.w3.org/2000/svg">
<path d="M6.54167 8.45769H1.75C1.47847 8.45769 1.25103 8.36569 1.06767 8.18169C0.884306 7.99769 0.792306 7.77024 0.791667 7.49935C0.791029 7.22846 0.883029 7.00102 1.06767 6.81702C1.25231 6.63302 1.47975 6.54102 1.75 6.54102H6.54167V1.74935C6.54167 1.47782 6.63367 1.25038 6.81767 1.06702C7.00167 0.883658 7.22911 0.791658 7.5 0.791019C7.77089 0.79038 7.99865 0.88238 8.18329 1.06702C8.36793 1.25166 8.45961 1.4791 8.45833 1.74935V6.54102H13.25C13.5215 6.54102 13.7493 6.63302 13.9333 6.81702C14.1173 7.00102 14.209 7.22846 14.2083 7.49935C14.2077 7.77024 14.1157 7.998 13.9323 8.18264C13.749 8.36728 13.5215 8.45896 13.25 8.45769H8.45833V13.2494C8.45833 13.5209 8.36633 13.7486 8.18233 13.9326C7.99833 14.1166 7.77089 14.2083 7.5 14.2077C7.22911 14.207 7.00167 14.115 6.81767 13.9317C6.63367 13.7483 6.54167 13.5209 6.54167 13.2494V8.45769Z" fill="white"/>
</svg>