<svg width="19" height="17" viewBox="0 0 19 17" fill="none" xmlns="http://www.w3.org/2000/svg">
<path d="M8.70508 1.29688C8.956 0.525277 10.0469 0.525279 10.2979 1.29688L11.4287 4.77637C11.6747 5.5336 12.3806 6.0459 13.1768 6.0459H16.835C17.6466 6.0459 17.9847 7.08542 17.3281 7.5625L14.3682 9.71289C13.7241 10.1809 13.4542 11.0104 13.7002 11.7676L14.8311 15.2471C15.0814 16.0187 14.1985 16.6601 13.542 16.1836L10.582 14.0332C9.93789 13.5652 9.06504 13.5652 8.4209 14.0332L5.46094 16.1836C4.80447 16.66 3.92156 16.0186 4.17188 15.2471L5.30273 11.7676C5.54877 11.0104 5.27888 10.1809 4.63477 9.71289L1.6748 7.5625C1.01824 7.08542 1.35635 6.0459 2.16797 6.0459H5.82617C6.62237 6.0459 7.32818 5.5336 7.57422 4.77637L8.70508 1.29688Z" stroke="#FFD005"/>
</svg>
